<svg aria-hidden="true" style="position: absolute; width: 0; height: 0; overflow: hidden;" version="1.1" xmlns="http://www.w3.org/2000/svg" xmlns:xlink="http://www.w3.org/1999/xlink">
<defs>
<symbol id="icon-close-btn" viewBox="0 0 36 32">
<path fill="#fff" style="fill: var(--color1, #fff)" d="M8.486 5.807c-0.462 0.142-0.996 0.664-1.079 1.079-0.19 0.83-0.107 0.924 4.172 5.227l4.089 4.101-3.994 3.947c-2.193 2.181-4.065 4.101-4.16 4.279-0.332 0.652-0.119 1.529 0.474 1.92 0.367 0.237 1.161 0.249 1.588 0.024 0.178-0.095 2.098-1.956 4.267-4.124l3.935-3.947 3.947 3.947c2.157 2.169 4.077 4.030 4.255 4.124s0.51 0.166 0.747 0.166c0.96 0 1.553-0.676 1.446-1.636-0.059-0.521-0.166-0.64-4.101-4.575-2.228-2.228-4.041-4.089-4.041-4.136s1.79-1.849 3.97-4.006c4.35-4.302 4.409-4.385 4.077-5.286-0.367-0.96-1.47-1.268-2.311-0.64-0.249 0.19-2.145 2.027-4.196 4.089l-3.733 3.745-4.148-4.148c-2.287-2.287-4.243-4.148-4.35-4.148s-0.261-0.024-0.356-0.047c-0.083-0.024-0.308 0-0.498 0.047zM9.363 6.187c0 0.059 0.047 0.095 0.107 0.095 0.047 0 1.92 1.813 4.148 4.030 2.216 2.216 4.124 4.030 4.219 4.030s0.924-0.735 1.837-1.636c0.924-0.889 1.719-1.647 1.79-1.659 0.059-0.024 0.083-0.095 0.036-0.154-0.036-0.059 0.024-0.107 0.119-0.107 0.107 0 0.19-0.047 0.19-0.095 0-0.095 0.427-0.533 1.636-1.683 0.201-0.213 0.379-0.427 0.379-0.498s0.024-0.107 0.059-0.071c0.095 0.083 1.007-0.794 1.007-0.96 0-0.071 0.047-0.13 0.095-0.13 0.059 0 0.261-0.166 0.45-0.356 0.664-0.687 1.481-0.924 1.873-0.521 0.107 0.095 0.19 0.142 0.201 0.083 0.012-0.13 0.237 0.439 0.296 0.759 0.095 0.486-0.13 0.806-1.28 1.896-0.083 0.071-0.77 0.759-1.517 1.505-0.747 0.759-1.399 1.375-1.446 1.375s-0.095 0.095-0.095 0.201c0 0.107-0.036 0.166-0.071 0.13-0.083-0.083-2.418 2.24-2.418 2.406 0 0.059-0.059 0.107-0.142 0.107-0.178 0-1.161 1.079-1.161 1.268 0 0.071 1.813 1.944 4.018 4.16 3.283 3.283 4.041 4.113 4.148 4.48 0.083 0.32 0.083 0.474 0 0.533-0.071 0.036-0.119 0.107-0.119 0.154 0.024 0.225-0.19 0.474-0.498 0.604-0.77 0.32-0.877 0.237-5.144-4.041-2.204-2.216-4.101-4.018-4.207-4.030-0.119-0.012-0.545 0.308-0.948 0.711-0.415 0.391-0.782 0.699-0.83 0.687-0.059-0.012-0.095 0.024-0.095 0.095 0 0.059-0.19 0.296-0.415 0.521-0.225 0.237-0.415 0.391-0.415 0.356s-0.142 0.107-0.32 0.332c-0.178 0.213-0.439 0.474-0.569 0.569-0.308 0.225-1.481 1.446-1.481 1.541 0 0.047-0.13 0.154-0.296 0.237-0.154 0.083-0.261 0.201-0.237 0.249 0.036 0.047-0.047 0.13-0.19 0.166-0.13 0.047-0.213 0.107-0.19 0.142 0.036 0.024-0.154 0.249-0.415 0.486s-0.841 0.794-1.28 1.233c-0.45 0.45-0.889 0.806-0.972 0.818-0.083 0-0.237 0.024-0.344 0.047-0.332 0.059-0.913-0.273-1.114-0.64-0.107-0.213-0.13-0.367-0.059-0.367s0.095-0.119 0.047-0.296c-0.059-0.237 0.012-0.379 0.344-0.711 0.225-0.225 0.403-0.427 0.391-0.439-0.012-0.024 0.13-0.178 0.308-0.356s0.332-0.296 0.332-0.273c0 0.071 1.944-1.896 2.216-2.24 0.154-0.201 0.273-0.32 0.273-0.284s0.948-0.877 2.11-2.027c1.161-1.15 2.098-2.121 2.062-2.181-0.024-0.047 0.012-0.083 0.083-0.083 0.059 0 0.107-0.107 0.095-0.225 0-0.13-0.059-0.201-0.107-0.178-0.047 0.036-0.095 0.012-0.095-0.047 0-0.071-1.813-1.932-4.041-4.16-2.216-2.216-4.006-4.077-3.97-4.136s0.071-0.32 0.083-0.593c0.036-0.45 0.083-0.521 0.486-0.723 0.45-0.213 1.043-0.273 1.043-0.107z"></path>
</symbol>
<symbol id="icon-icecream1" viewBox="0 0 32 32">
<path fill="#fff" style="fill: var(--color1, #fff)" d="M13.714 5.769c-0.196 0.131-0.218 0.218-0.065 0.218 0.131 0 0.327-0.109 0.392-0.218 0.174-0.261 0.087-0.261-0.327 0z"></path>
<path fill="#fff" style="fill: var(--color1, #fff)" d="M15.020 5.878c0 0.174 0.087 0.327 0.196 0.327 0.327 0 0.457 0.675 0.174 0.958-0.131 0.152-0.784 0.544-1.415 0.893-1.088 0.588-1.785 1.415-1.785 2.155 0 0.174-0.283 0.37-0.631 0.457-1.088 0.239-2.199 1.72-2.22 2.982-0.022 0.849 0.348 1.916 0.675 1.916 0.283 0 0.283-0.196-0.022-1.067-0.501-1.459 0.544-3.091 2.177-3.418 0.588-0.131 0.675-0.239 0.675-0.849 0-0.762 0.261-1.067 1.763-1.916 1.35-0.762 1.654-1.154 1.328-1.698-0.435-0.675-0.022-0.479 1.393 0.653 1.829 1.48 2.046 2.068 1.48 4.267-0.087 0.37-0.065 0.566 0.044 0.479 0.392-0.239 1.502 0.501 1.807 1.175 0.174 0.414 0.239 0.98 0.152 1.524-0.087 0.479-0.044 0.849 0.065 0.849 0.37 0 0.522-0.479 0.501-1.459 0-1.11-0.893-2.46-1.589-2.46-0.218 0-0.414-0.022-0.414-0.065 0-0.022 0.087-0.37 0.218-0.762 0.327-1.197 0.022-2.003-1.197-3.222-1.023-1.023-2.59-2.046-3.156-2.046-0.109 0-0.218 0.152-0.218 0.327z"></path>
<path fill="#fff" style="fill: var(--color1, #fff)" d="M20.724 6.204c0 0.305 0.044 0.414 0.109 0.261 0.044-0.131 0.044-0.392 0-0.544-0.065-0.131-0.109-0.022-0.109 0.283z"></path>
<path fill="#fff" style="fill: var(--color1, #fff)" d="M17.154 8.707c-0.152 0.174 0.697 1.85 0.936 1.85 0.305 0 0.239-0.61-0.131-1.306-0.327-0.631-0.566-0.784-0.805-0.544z"></path>
<path fill="#fff" style="fill: var(--color1, #fff)" d="M10.841 9.622c0.152 0.065 0.348 0.044 0.414-0.022 0.087-0.065-0.044-0.131-0.283-0.109-0.239 0-0.305 0.065-0.131 0.131z"></path>
<path fill="#fff" style="fill: var(--color1, #fff)" d="M11.276 12.561c-0.566 0.849-0.675 1.48-0.305 1.48 0.196 0 0.348-0.196 0.348-0.435s0.196-0.61 0.435-0.805c0.501-0.435 0.566-0.718 0.131-0.718-0.152 0-0.435 0.218-0.61 0.479z"></path>
<path fill="#fff" style="fill: var(--color1, #fff)" d="M7.946 16.305c-0.392 0.283-0.392 0.392 0.196 3.744 0.653 3.57 0.958 4.506 1.546 4.746 0.196 0.065 2.83 0.131 5.856 0.131 5.224 0 5.507-0.022 5.965-0.435 0.261-0.239 0.522-0.675 0.588-0.936 0.327-1.589 1.197-6.422 1.197-6.727 0-0.762-0.718-0.827-7.88-0.827-5.638 0-7.14 0.065-7.467 0.305zM22.552 17.654c-0.065 0.566-0.131 1.197-0.131 1.415 0 0.348-0.174 0.414-1.306 0.414-1.023 0-1.306 0.065-1.306 0.327 0 0.239 0.283 0.327 1.175 0.327 1.067 0 1.175 0.044 1.067 0.435-0.087 0.37-0.305 0.435-1.175 0.435-0.827 0-1.067 0.087-1.067 0.348s0.218 0.327 0.936 0.305c0.501-0.022 0.98-0.022 1.067-0.022 0.261 0.044-0.479 2.307-0.849 2.569-0.522 0.392-10.493 0.392-11.015 0-0.37-0.261-1.11-2.525-0.849-2.569 0.087 0 0.566 0 1.088 0.022 0.697 0.022 0.914-0.044 0.914-0.305s-0.239-0.348-1.088-0.348c-0.588 0-1.088-0.044-1.088-0.087s-0.065-0.239-0.131-0.435c-0.109-0.283 0.065-0.348 1.088-0.348 0.936 0 1.219-0.065 1.219-0.327s-0.283-0.327-1.263-0.327h-1.263l-0.218-1.306c-0.131-0.718-0.174-1.371-0.109-1.415 0.044-0.065 3.331-0.109 7.271-0.109h7.184l-0.152 1.001z"></path>
<path fill="#fff" style="fill: var(--color1, #fff)" d="M10.623 18.22c0.109 0.109 0.348 0.174 0.501 0.131 0.174-0.065 0.065-0.152-0.218-0.239-0.37-0.087-0.457-0.065-0.283 0.109z"></path>
<path fill="#fff" style="fill: var(--color1, #fff)" d="M13.91 18.155c-1.284 0.414-2.373 1.567-2.242 2.351 0.022 0.152 0.044 0.435 0.065 0.61 0.044 0.653 1.35 1.611 2.525 1.85 3.984 0.827 6.77-2.46 3.701-4.354-0.871-0.544-3.069-0.784-4.049-0.457zM17.763 19.178c0.827 0.61 1.045 1.023 0.871 1.676-0.196 0.849-1.306 1.524-2.678 1.633-2.721 0.218-4.615-1.437-3.352-2.939 0.631-0.74 1.284-0.936 3.004-0.871 1.175 0.044 1.72 0.152 2.155 0.501z"></path>
<path fill="#fff" style="fill: var(--color1, #fff)" d="M10.297 23.075c0 0.174 0.087 0.261 0.196 0.196s0.131-0.218 0.065-0.327c-0.196-0.283-0.261-0.239-0.261 0.131z"></path>
<path fill="#fff" style="fill: var(--color1, #fff)" d="M24.185 20.92c0 0.239 0.065 0.305 0.131 0.131 0.065-0.152 0.044-0.348-0.022-0.414-0.065-0.087-0.131 0.044-0.109 0.283z"></path>
</symbol>
<symbol id="icon-icecream2" viewBox="0 0 32 32">
<path fill="#fff" style="fill: var(--color1, #fff)" d="M13.286 5.094c-1.997 0.691-4.045 2.458-4.915 4.173-0.922 1.818-1.126 5.965-0.307 5.965 0.256 0 0.307-0.384 0.205-1.536-0.333-3.533 1.613-6.682 4.813-7.808 2.79-0.998 5.914-0.282 8.013 1.818 1.536 1.562 2.074 2.918 2.074 5.402 0 1.536 0.077 2.125 0.307 2.125 0.563 0 0.512-3.328-0.077-5.197-0.589-1.792-2.867-4.045-4.787-4.762-1.69-0.614-3.917-0.691-5.325-0.179z"></path>
<path fill="#fff" style="fill: var(--color1, #fff)" d="M9.677 5.427c0.154 0.051 0.461 0.051 0.64 0 0.154-0.077 0.026-0.128-0.333-0.128s-0.486 0.051-0.307 0.128z"></path>
<path fill="#fff" style="fill: var(--color1, #fff)" d="M13.568 7.962c-0.486 0.205-1.152 0.64-1.459 0.922-0.614 0.563-0.794 1.229-0.333 1.229 0.154 0 0.256-0.102 0.256-0.23 0-0.435 1.946-1.536 2.944-1.638 1.254-0.128 1.536-0.691 0.333-0.691-0.461 0.026-1.254 0.205-1.741 0.41z"></path>
<path fill="#fff" style="fill: var(--color1, #fff)" d="M14.797 9.267c0.179 0.077 0.41 0.051 0.486-0.026 0.102-0.077-0.051-0.154-0.333-0.128-0.282 0-0.358 0.077-0.154 0.154z"></path>
<path fill="#fff" style="fill: var(--color1, #fff)" d="M25.856 15.744c-0.23 0.154-0.256 0.256-0.077 0.256 0.154 0 0.384-0.128 0.461-0.256 0.205-0.307 0.102-0.307-0.384 0z"></path>
<path fill="#fff" style="fill: var(--color1, #fff)" d="M5.811 16.512c-0.307 0.461-0.256 1.075 0.486 4.966 0.461 2.458 0.973 4.71 1.126 5.018 0.154 0.282 0.563 0.64 0.922 0.768 0.358 0.154 3.763 0.256 7.552 0.256h6.938l0.691-0.717c0.538-0.538 0.794-1.178 1.152-2.995 0.307-1.587 0.384-2.304 0.179-2.381-0.41-0.128-0.333-0.563 0.077-0.563 0.256 0 0.435-0.461 0.563-1.485 0.128-1.126 0.23-1.331 0.384-0.947 0.154 0.333 0.179 0.077 0.077-0.64-0.102-0.64-0.282-1.306-0.41-1.485-0.205-0.23-2.483-0.307-9.83-0.307-9.267 0-9.549 0.026-9.907 0.512zM24.883 17.92c-0.051 0.768 0 0.922 0.179 0.64 0.179-0.23 0.282-0.256 0.282-0.077 0 0.154-0.102 0.358-0.23 0.461-0.128 0.077-0.307 0.461-0.41 0.87-0.128 0.64-0.256 0.717-1.101 0.717-1.894-0.026-2.867 0.077-2.867 0.333 0 0.154 0.768 0.256 1.766 0.256 1.766 0 2.15 0.205 1.869 0.947-0.077 0.23-0.742 0.333-2.15 0.333-1.51 0-2.022 0.077-1.92 0.307 0.051 0.23 0.691 0.333 1.946 0.333h1.869l-0.179 1.126c-0.205 1.357-0.589 2.253-1.050 2.432-0.205 0.077-3.456 0.154-7.27 0.154-5.069 0.026-7.040-0.026-7.296-0.256-0.358-0.307-0.768-1.51-0.947-2.79-0.077-0.589-0.026-0.589 1.818-0.64 1.28-0.026 1.946-0.128 1.997-0.358 0.102-0.23-0.41-0.307-1.92-0.307-1.638 0-2.074-0.077-2.202-0.41-0.307-0.794-0.128-0.87 1.818-0.87 2.458 0 2.227-0.461-0.307-0.563l-1.766-0.077-0.333-1.536c-0.179-0.845-0.307-1.69-0.333-1.869 0-0.256 1.894-0.307 9.395-0.256l9.421 0.077-0.077 1.024z"></path>
<path fill="#fff" style="fill: var(--color1, #fff)" d="M12.058 18.79c-0.461 0.435-0.794 0.998-0.794 1.357 0 1.101 1.178 3.123 2.432 4.173 1.638 1.382 2.022 1.536 2.611 1.126 1.050-0.742 2.048-1.69 2.867-2.714 1.126-1.408 1.178-2.867 0.128-3.942-0.819-0.845-2.355-1.024-3.021-0.358-0.205 0.205-0.486 0.384-0.614 0.384s-0.384-0.179-0.563-0.384c-0.563-0.666-2.15-0.486-3.046 0.358zM14.976 19.226l0.614 0.666 0.794-0.666c0.998-0.845 1.638-0.845 2.458-0.026 0.64 0.666 0.768 1.69 0.282 2.355-0.128 0.179-0.154 0.435-0.051 0.589s0.077 0.256-0.051 0.205c-0.23-0.051-2.534 2.125-2.458 2.355 0.026 0.077-0.23 0.179-0.589 0.205-0.461 0.026-1.050-0.358-2.176-1.459-1.357-1.306-1.587-1.664-1.69-2.637s-0.051-1.254 0.461-1.715c0.794-0.717 1.664-0.691 2.406 0.128z"></path>
<path fill="#fff" style="fill: var(--color1, #fff)" d="M17.562 19.533c-0.128 0.205 0.717 1.075 0.998 1.075 0.333 0 0.077-0.998-0.282-1.126-0.512-0.205-0.563-0.205-0.717 0.051z"></path>
<path fill="#fff" style="fill: var(--color1, #fff)" d="M22.451 25.293c-0.077 0.205 0.026 0.358 0.205 0.358s0.282-0.154 0.205-0.358c-0.154-0.41-0.256-0.41-0.41 0z"></path>
<path fill="#fff" style="fill: var(--color1, #fff)" d="M18.253 25.651c0.23 0.051 0.589 0.051 0.768 0 0.154-0.077-0.026-0.128-0.461-0.128-0.41 0-0.563 0.051-0.307 0.128z"></path>
<path fill="#fff" style="fill: var(--color1, #fff)" d="M25.754 21.862c-0.102 0.128-0.051 0.307 0.077 0.384 0.128 0.102 0.307 0.051 0.384-0.077 0.102-0.128 0.051-0.307-0.077-0.384-0.128-0.102-0.307-0.051-0.384 0.077z"></path>
</symbol>
<symbol id="icon-icecream3" viewBox="0 0 32 32">
<path fill="#fff" style="fill: var(--color1, #fff)" d="M13.731 4.418c0.072 0.119 0.191 0.239 0.263 0.239 0.048 0 0.096-0.119 0.096-0.239 0-0.143-0.119-0.239-0.263-0.239-0.119 0-0.167 0.096-0.096 0.239z"></path>
<path fill="#fff" style="fill: var(--color1, #fff)" d="M15.26 5.063c-0.024 0.119-0.024 0.406 0 0.669 0.024 0.31-0.263 0.669-0.812 1.027-0.478 0.287-0.979 0.812-1.122 1.122-0.143 0.334-0.358 0.597-0.454 0.597s-0.502 0.287-0.907 0.621c-0.597 0.502-0.74 0.788-0.74 1.552s-0.096 0.931-0.454 0.931c-0.621 0-1.696 1.313-1.696 2.078 0 1.027 0.693 2.125 1.743 2.722 0.86 0.502 1.313 0.573 3.272 0.573 1.863 0 2.555-0.119 3.773-0.597 1.672-0.645 3.391-2.245 3.391-3.104 0-0.502-0.979-1.672-1.409-1.672-0.119 0-0.167-0.358-0.096-0.788 0.096-0.669 0.024-0.884-0.454-1.266-0.358-0.287-0.645-0.812-0.74-1.409-0.096-0.525-0.358-1.218-0.597-1.552-0.788-1.075-2.627-2.078-2.698-1.504zM16.573 5.97c1.385 1.051 1.791 2.937 0.74 3.415-0.502 0.239-0.812 0.167-1.982-0.382-0.74-0.334-1.409-0.669-1.457-0.716-0.072-0.024 0.406-0.525 1.027-1.122 0.621-0.573 1.075-1.146 0.979-1.29-0.215-0.358 0.167-0.31 0.693 0.096zM15.045 9.552c1.337 0.669 1.672 0.716 2.818 0.31 0.716-0.263 0.836-0.263 1.146 0.143 0.43 0.597 0.072 1.218-1.051 1.791-1.958 0.979-4.728 0.812-5.707-0.334-0.716-0.812-0.693-0.979 0.143-1.815 0.86-0.836 1.146-0.86 2.651-0.096zM14.782 12.967c1.528 0.072 2.078 0 3.128-0.454 1.146-0.502 1.313-0.502 1.887-0.191 0.812 0.454 0.884 1.003 0.287 1.863-1.576 2.197-7.69 2.985-9.576 1.218-0.621-0.573-0.74-0.86-0.669-1.6 0.048-0.693 0.239-1.003 0.86-1.433l0.812-0.525 0.716 0.525c0.549 0.406 1.122 0.549 2.555 0.597z"></path>
<path fill="#fff" style="fill: var(--color1, #fff)" d="M14.734 10.412c0.167 0.167 0.358 0.239 0.43 0.167s-0.048-0.215-0.287-0.287c-0.334-0.143-0.358-0.119-0.143 0.119z"></path>
<path fill="#fff" style="fill: var(--color1, #fff)" d="M12.49 10.746c0 0.191 0.096 0.287 0.215 0.215s0.143-0.239 0.072-0.358c-0.215-0.31-0.287-0.263-0.287 0.143z"></path>
<path fill="#fff" style="fill: var(--color1, #fff)" d="M21.445 9.361c0.167 0.072 0.382 0.048 0.454-0.024 0.096-0.072-0.048-0.143-0.31-0.119-0.263 0-0.334 0.072-0.143 0.143z"></path>
<path fill="#fff" style="fill: var(--color1, #fff)" d="M22.734 14.448c0 0.334 0.048 0.454 0.119 0.287 0.048-0.143 0.048-0.43 0-0.597-0.072-0.143-0.119-0.024-0.119 0.31z"></path>
<path fill="#fff" style="fill: var(--color1, #fff)" d="M8.143 15.785c0 0.263 0.072 0.334 0.143 0.143 0.072-0.167 0.048-0.382-0.024-0.454-0.072-0.096-0.143 0.048-0.119 0.31z"></path>
<path fill="#fff" style="fill: var(--color1, #fff)" d="M19.248 16.645c-0.191 0.764-1.433 1.528-3.128 1.958-1.767 0.454-3.797 0.573-3.845 0.263-0.024-0.43-0.645-1.552-0.86-1.552-0.334 0-0.215 0.502 0.525 2.125 0.382 0.86 1.17 2.698 1.767 4.060 0.573 1.361 1.218 2.579 1.409 2.698 0.406 0.215 1.337-1.528 3.391-6.376 0.525-1.194 1.075-2.412 1.218-2.722 0.31-0.573 0.239-0.979-0.143-0.979-0.096 0-0.239 0.239-0.334 0.525zM18.173 19.152c-0.621 1.242-0.788 1.361-2.937 1.934-1.672 0.43-1.863 0.454-1.863 0.096 0-0.191-0.239-0.621-0.525-0.931l-0.502-0.549h1.051c1.313 0 3.319-0.525 4.346-1.146 0.406-0.239 0.788-0.43 0.836-0.382 0.048 0.024-0.143 0.478-0.406 0.979zM17.528 21.087c-0.406 0.263-1.051 1.648-0.86 1.839 0.096 0.119 0.048 0.119-0.096 0.048s-0.669 0-1.194 0.191c-0.884 0.287-0.955 0.287-1.218-0.191-0.478-0.86-0.358-1.051 0.836-1.218 0.621-0.096 1.385-0.31 1.719-0.502 0.597-0.358 1.29-0.502 0.812-0.167zM15.785 24.621l-0.454 1.17-0.382-0.884c-0.478-1.146-0.478-1.146 0.191-1.146 0.334 0 0.669-0.119 0.74-0.263 0.382-0.597 0.31 0.024-0.096 1.122z"></path>
<path fill="#fff" style="fill: var(--color1, #fff)" d="M11.51 21.731c0 0.382 0.048 0.525 0.119 0.287 0.048-0.215 0.048-0.549 0-0.716-0.072-0.143-0.119 0.024-0.119 0.43z"></path>
</symbol>
<symbol id="icon-logo-drop" viewBox="0 0 32 32">
<path fill="#fdfcfc" style="fill: var(--color2, #fdfcfc)" d="M21.378 7.692c-0.251 0.193-0.655 0.405-0.887 0.482-0.251 0.077-0.443 0.231-0.443 0.328s-0.154 0.174-0.328 0.174c-0.366 0.019-1.022 0.424-1.022 0.655 0 0.251 0.54 0.096 1.060-0.308 0.463-0.366 0.54-0.366 0.694-0.116 0.096 0.174 0.386 0.366 0.636 0.424 0.405 0.096 0.463 0.231 0.443 0.79-0.019 0.366-0.058 0.675-0.096 0.675-0.019 0-0.366-0.193-0.771-0.443-0.501-0.328-0.848-0.405-1.195-0.328-0.443 0.135-0.463 0.154-0.096 0.289 1.542 0.578 1.831 0.771 1.735 1.157-0.039 0.212-0.096 0.54-0.096 0.713 0 0.443-0.212 0.443-0.713-0.019-0.463-0.443-1.947-1.137-2.757-1.311-0.675-0.135-0.752-0.347-0.154-0.52 0.328-0.077 0.386-0.154 0.212-0.328-0.154-0.154-0.366-0.116-0.829 0.116l-0.617 0.308 0.636 0.482c0.347 0.251 0.733 0.463 0.867 0.463s0.848 0.328 1.619 0.713l1.388 0.713-0.116 0.945c-0.096 0.713-0.077 0.925 0.116 0.867 0.135-0.058 0.559-1.388 0.964-2.969 1.060-4.202 1.022-3.952 0.713-4.145-0.366-0.231-0.443-0.212-0.964 0.193zM21.976 8.289c-0.116 0.212-0.174 0.443-0.154 0.559 0.058 0.193-0.058 0.212-0.617 0.077-0.578-0.154-0.463-0.52 0.289-0.945 0.501-0.289 0.733-0.154 0.482 0.308z"></path>
<path fill="#fdfcfc" style="fill: var(--color2, #fdfcfc)" d="M24.501 9.561c0 0.212 0.058 0.27 0.116 0.116 0.058-0.135 0.039-0.308-0.019-0.366-0.058-0.077-0.116 0.039-0.096 0.251z"></path>
<path fill="#fdfcfc" style="fill: var(--color2, #fdfcfc)" d="M17.773 9.677c0.058 0.135 0.328 0.27 0.636 0.308 0.501 0.058 0.52 0.039 0.231-0.231-0.366-0.366-0.964-0.405-0.867-0.077z"></path>
<path fill="#fdfcfc" style="fill: var(--color2, #fdfcfc)" d="M14.111 10.448c-0.135 0.135-0.231 0.308-0.231 0.405s0.135 0.019 0.308-0.154c0.174-0.174 0.27-0.347 0.231-0.386-0.039-0.058-0.193 0.019-0.308 0.135z"></path>
<path fill="#fdfcfc" style="fill: var(--color2, #fdfcfc)" d="M15.345 10.892c-0.501 0.366-0.328 0.52 0.443 0.366 0.482-0.096 0.559-0.174 0.386-0.386-0.27-0.328-0.366-0.328-0.829 0.019z"></path>
<path fill="#fdfcfc" style="fill: var(--color2, #fdfcfc)" d="M12.26 11.759c0.058 0.058 0.308 0.096 0.559 0.096 0.27 0.019 0.424-0.039 0.366-0.096s-0.308-0.096-0.559-0.096c-0.27-0.019-0.424 0.039-0.366 0.096z"></path>
<path fill="#fdfcfc" style="fill: var(--color2, #fdfcfc)" d="M14.304 12.125c-1.099 0.193-2.313 1.080-3.027 2.217-0.79 1.292-0.906 3.084-0.289 4.511 0.231 0.54 0.54 1.099 0.694 1.214s0.27 0.578 0.27 1.041c0 0.829 0.424 1.446 1.002 1.446 0.405 0 0.867-0.578 0.964-1.157 0.039-0.27 0.193-0.482 0.347-0.482 0.231 0 0.308 0.328 0.347 1.542 0.058 1.696 0.231 2.024 1.002 2.024 0.79 0 0.945-0.328 1.002-2.12 0.039-1.311 0.116-1.639 0.347-1.639 0.212 0 0.308 0.27 0.347 0.964 0.077 1.080 0.289 1.446 0.887 1.446 0.675 0 0.887-0.386 0.887-1.542 0-0.848 0.116-1.234 0.52-1.831 1.812-2.66 0.598-6.458-2.39-7.537-0.79-0.27-1.6-0.308-2.911-0.096zM16.81 12.588c0.771 0.193 2.12 1.311 2.602 2.159 0.887 1.561 0.771 3.2-0.328 4.877-0.443 0.675-0.52 0.983-0.463 1.754 0.039 0.675-0.019 1.022-0.231 1.195-0.405 0.328-0.655-0.058-0.655-1.022 0-1.041-0.154-1.311-0.79-1.311-0.752 0-0.945 0.463-0.945 2.217 0 1.137-0.058 1.484-0.289 1.581-0.482 0.174-0.578-0.077-0.598-1.716-0.019-1.272-0.077-1.6-0.366-1.812-0.212-0.154-0.424-0.27-0.482-0.27-0.328 0-0.829 0.578-0.887 0.983-0.019 0.251-0.058 0.52-0.058 0.598-0.019 0.096-0.193 0.154-0.405 0.154-0.328 0-0.386-0.135-0.386-0.81 0-0.52-0.154-0.983-0.443-1.388-0.694-0.925-1.002-1.851-0.983-3.026 0.019-2.063 1.446-3.663 3.74-4.241 0.694-0.174 1.292-0.251 1.349-0.174s0.328 0.193 0.617 0.251z"></path>
<path fill="#fdfcfc" style="fill: var(--color2, #fdfcfc)" d="M14.998 13.667c-0.81 0.174-2.082 0.964-2.082 1.311 0 0.386 0.308 0.289 0.887-0.231 0.289-0.27 0.848-0.54 1.272-0.598 0.424-0.077 0.733-0.231 0.733-0.386s-0.019-0.251-0.039-0.251c-0.039 0.019-0.386 0.096-0.771 0.154z"></path>
<path fill="#fdfcfc" style="fill: var(--color2, #fdfcfc)" d="M12.665 15.634c0.135 0.135 0.289 0.193 0.347 0.135s-0.039-0.174-0.231-0.231c-0.27-0.116-0.289-0.096-0.116 0.096z"></path>
<path fill="#fdfcfc" style="fill: var(--color2, #fdfcfc)" d="M12.916 19.74c0 0.039 0.116 0.174 0.27 0.289 0.212 0.174 0.308 0.174 0.424 0 0.077-0.154 0.058-0.174-0.077-0.096s-0.231 0.039-0.231-0.058c0-0.116-0.077-0.212-0.193-0.212-0.096 0-0.193 0.039-0.193 0.077z"></path>
<path fill="#fdfcfc" style="fill: var(--color2, #fdfcfc)" d="M10.795 13.282c0 0.116 0.077 0.251 0.193 0.308s0.135-0.019 0.077-0.174c-0.135-0.347-0.27-0.405-0.27-0.135z"></path>
<path fill="#fdfcfc" style="fill: var(--color2, #fdfcfc)" d="M20.839 18.429c0 0.212 0.058 0.27 0.116 0.116 0.058-0.135 0.039-0.308-0.019-0.366-0.058-0.077-0.116 0.039-0.096 0.251z"></path>
<path fill="#fdfcfc" style="fill: var(--color2, #fdfcfc)" d="M10.255 18.699c0 0.27 0.039 0.366 0.096 0.231 0.039-0.116 0.039-0.347 0-0.482-0.058-0.116-0.096-0.019-0.096 0.251z"></path>
<path fill="#fdfcfc" style="fill: var(--color2, #fdfcfc)" d="M19.798 22.496c-0.193 0.174-0.174 0.443 0.019 0.443 0.096 0 0.174-0.135 0.174-0.289 0-0.328-0.019-0.347-0.193-0.154z"></path>
<path fill="#fdfcfc" style="fill: var(--color2, #fdfcfc)" d="M13.051 23.73c0.135 0.135 0.289 0.193 0.347 0.135s-0.039-0.174-0.231-0.231c-0.27-0.116-0.289-0.096-0.116 0.096z"></path>
<path fill="#fdfcfc" style="fill: var(--color2, #fdfcfc)" d="M13.976 25.060c-0.058 0.116 0.019 0.135 0.174 0.077 0.347-0.135 0.405-0.27 0.135-0.27-0.116 0-0.251 0.077-0.308 0.193z"></path>
<path fill="#fdfcfc" style="fill: var(--color2, #fdfcfc)" d="M14.747 25.253c0.058 0.096 0.154 0.193 0.212 0.193 0.039 0 0.077-0.096 0.077-0.193 0-0.116-0.096-0.193-0.212-0.193-0.096 0-0.135 0.077-0.077 0.193z"></path>
</symbol>
<symbol id="icon-search" viewBox="0 0 32 32">
<path fill="#fff" style="fill: var(--color1, #fff)" d="M14.443 11.2c-1.621 0.341-2.933 1.717-3.243 3.392-0.309 1.728 0.651 3.541 2.293 4.352 0.587 0.277 0.736 0.309 1.76 0.309 1.003 0 1.184-0.032 1.707-0.288l0.587-0.288 1.131 1.109c0.757 0.747 1.205 1.12 1.365 1.12 0.139 0 0.384-0.149 0.565-0.32 0.469-0.469 0.363-0.725-0.875-1.973l-1.067-1.067 0.299-0.587c0.256-0.523 0.288-0.704 0.288-1.707 0-1.056-0.021-1.173-0.341-1.824-0.427-0.853-1.088-1.493-1.984-1.909-0.736-0.341-1.76-0.48-2.485-0.32zM16.309 11.627c1.067 0.331 1.813 0.939 2.357 1.92 0.235 0.427 0.267 0.608 0.267 1.6 0 1.205-0.043 1.493-0.245 1.739s-0.299 0.928-0.128 0.928c0.075 0 0.107 0.032 0.075 0.075-0.043 0.032 0.053 0.16 0.213 0.267 0.171 0.107 0.256 0.192 0.192 0.192-0.053 0 0.043 0.096 0.213 0.213 0.181 0.117 0.288 0.213 0.245 0.213-0.032 0 0.192 0.267 0.512 0.587s0.576 0.64 0.576 0.725c0 0.203-0.331 0.469-0.555 0.469-0.107 0-0.672-0.48-1.248-1.056-0.587-0.576-1.152-1.045-1.259-1.045s-0.395 0.107-0.619 0.235c-0.363 0.192-0.608 0.224-1.6 0.235-0.917 0-1.248-0.043-1.493-0.181-0.171-0.096-0.363-0.181-0.427-0.181-0.245 0-1.131-0.896-1.461-1.472-0.32-0.555-0.352-0.704-0.384-1.707-0.043-1.003-0.021-1.131 0.235-1.685 0.363-0.757 1.259-1.653 1.856-1.845 0.245-0.085 0.448-0.181 0.448-0.224 0-0.128 1.813-0.128 2.229 0z"></path>
<path fill="#fff" style="fill: var(--color1, #fff)" d="M14.368 11.883c-0.277 0.075-0.587 0.213-0.693 0.309-0.096 0.085-0.224 0.181-0.288 0.203-0.128 0.032-0.416 0.267-0.715 0.565-0.117 0.117-0.363 0.512-0.533 0.885-0.288 0.597-0.32 0.757-0.288 1.493 0.085 1.717 1.195 3.008 2.869 3.328 0.299 0.053 0.683 0.075 0.843 0.043 0.725-0.149 1.184-0.288 1.184-0.373 0-0.043 0.107-0.117 0.245-0.149 0.341-0.107 1.099-0.949 1.376-1.525 0.352-0.725 0.341-2.112 0-2.816-0.779-1.568-2.453-2.4-4-1.963zM16.533 12.384c0.576 0.256 1.099 0.736 1.472 1.365 0.416 0.704 0.459 1.909 0.107 2.688-0.373 0.821-0.747 1.205-1.493 1.579-2.080 1.045-4.469-0.448-4.48-2.784 0-2.283 2.293-3.765 4.395-2.848z"></path>
</symbol>
<symbol id="icon-burger" viewBox="0 0 32 32">
<path fill="#fdfcfc" style="fill: var(--color2, #fdfcfc)" d="M7.379 9.6c-0.113 0.301-0.113 0.828 0 1.129 0.188 0.489 1.468 0.565 8.245 0.565 8.358 0 9.186-0.151 8.621-1.656-0.188-0.527-1.205-0.602-8.433-0.602-6.927 0-8.245 0.075-8.433 0.565zM18.635 9.788c-0.151 0.226 0.226 0.376 0.828 0.376 0.828 0 0.941-0.075 0.489-0.376-0.414-0.264-0.151-0.376 1.016-0.376 1.694 0 2.146 0.301 1.656 1.092-0.226 0.339-0.414 0.376-0.565 0.075-0.151-0.226-0.075-0.414 0.188-0.414s0.376-0.075 0.264-0.188c-0.264-0.264-1.468 0.188-1.28 0.527 0.075 0.113-0.376 0.188-1.016 0.151-0.678-0.038-3.501-0.113-6.287-0.151s-4.329-0.188-3.388-0.301l1.694-0.188-1.882-0.226c-1.28-0.188-0.188-0.264 3.313-0.301 3.388-0.038 5.12 0.038 4.969 0.301z"></path>
<path fill="#fdfcfc" style="fill: var(--color2, #fdfcfc)" d="M13.854 10.052c0.866 0.075 2.221 0.075 3.012 0 0.753-0.075 0.038-0.151-1.619-0.151s-2.296 0.075-1.393 0.151z"></path>
<path fill="#fdfcfc" style="fill: var(--color2, #fdfcfc)" d="M26.014 11.144c0 0.414 0.113 0.527 0.226 0.226 0.113-0.264 0.075-0.602-0.038-0.715-0.113-0.151-0.226 0.075-0.188 0.489z"></path>
<path fill="#fdfcfc" style="fill: var(--color2, #fdfcfc)" d="M23.304 12.687c-0.489 0.602-0.452 0.64 0.151 0.151 0.339-0.264 0.64-0.565 0.64-0.64 0-0.301-0.301-0.113-0.791 0.489z"></path>
<path fill="#fdfcfc" style="fill: var(--color2, #fdfcfc)" d="M9.864 14.268c-0.301 0.151-0.452 0.715-0.376 1.205l0.113 0.904h6.174c5.346 0 6.212-0.075 6.551-0.64 0.301-0.452 0.264-0.791-0.075-1.205-0.414-0.489-1.468-0.602-6.212-0.602-3.125 0-5.911 0.151-6.174 0.339zM20.894 15.247c0 0.188-2.447 0.301-5.459 0.301-6.287-0.075-5.76-0.038-5.496-0.414 0.264-0.452 10.955-0.339 10.955 0.113z"></path>
<path fill="#fdfcfc" style="fill: var(--color2, #fdfcfc)" d="M11.294 19.765c-0.376 0.489-0.376 0.715 0.188 1.318 0.602 0.64 1.167 0.753 4.367 0.753 2.824 0 3.802-0.151 4.254-0.602 1.506-1.468 0.339-2.033-4.329-2.033-3.125 0-4.104 0.113-4.48 0.565zM15.624 20.706c0.339 0 0.489-0.188 0.376-0.376-0.376-0.602 0.565-0.452 1.205 0.188 0.527 0.527 0.339 0.602-1.92 0.489-1.393-0.038-2.711-0.226-2.974-0.376-0.301-0.188-0.264-0.301 0.226-0.301 0.339 0 0.64-0.188 0.64-0.414 0-0.264 0.376-0.188 0.941 0.188 0.489 0.339 1.167 0.602 1.506 0.602zM18.748 20.292c-0.264 0.339-0.489 0.678-0.565 0.753-0.038 0.075-0.038-0.188 0-0.602 0-0.414 0.264-0.753 0.527-0.753 0.376 0 0.376 0.151 0.038 0.602z"></path>
</symbol>
<symbol id="icon-telegram" viewBox="0 0 32 32">
<path d="M16 0c-8.838 0-16 7.162-16 16s7.162 16 16 16 16-7.163 16-16-7.163-16-16-16zM23.863 10.969l-2.625 12.369c-0.181 0.881-0.712 1.087-1.45 0.681l-4-2.956-1.919 1.869c-0.225 0.219-0.4 0.4-0.8 0.4-0.519 0-0.431-0.194-0.606-0.688l-1.363-4.475-3.956-1.231c-0.856-0.262-0.862-0.85 0.194-1.269l15.412-5.95c0.7-0.319 1.381 0.169 1.113 1.25z"></path>
</symbol>
<symbol id="icon-github" viewBox="0 0 32 32">
<path d="M16 0.395c-8.836 0-16 7.163-16 16 0 7.069 4.585 13.067 10.942 15.182 0.8 0.148 1.094-0.347 1.094-0.77 0-0.381-0.015-1.642-0.022-2.979-4.452 0.968-5.391-1.888-5.391-1.888-0.728-1.849-1.776-2.341-1.776-2.341-1.452-0.993 0.11-0.973 0.11-0.973 1.606 0.113 2.452 1.649 2.452 1.649 1.427 2.446 3.743 1.739 4.656 1.33 0.143-1.034 0.558-1.74 1.016-2.14-3.554-0.404-7.29-1.777-7.29-7.907 0-1.747 0.625-3.174 1.649-4.295-0.166-0.403-0.714-2.030 0.155-4.234 0 0 1.344-0.43 4.401 1.64 1.276-0.355 2.645-0.532 4.005-0.539 1.359 0.006 2.729 0.184 4.008 0.539 3.054-2.070 4.395-1.64 4.395-1.64 0.871 2.204 0.323 3.831 0.157 4.234 1.026 1.12 1.647 2.548 1.647 4.295 0 6.145-3.743 7.498-7.306 7.895 0.574 0.497 1.085 1.47 1.085 2.963 0 2.141-0.019 3.864-0.019 4.391 0 0.426 0.288 0.925 1.099 0.768 6.354-2.118 10.933-8.113 10.933-15.18 0-8.837-7.164-16-16-16z"></path>
</symbol>
<symbol id="icon-linkedin" viewBox="0 0 32 32">
<path d="M29 0h-26c-1.65 0-3 1.35-3 3v26c0 1.65 1.35 3 3 3h26c1.65 0 3-1.35 3-3v-26c0-1.65-1.35-3-3-3zM12 26h-4v-14h4v14zM10 10c-1.106 0-2-0.894-2-2s0.894-2 2-2c1.106 0 2 0.894 2 2s-0.894 2-2 2zM26 26h-4v-8c0-1.106-0.894-2-2-2s-2 0.894-2 2v8h-4v-14h4v2.481c0.825-1.131 2.087-2.481 3.5-2.481 2.488 0 4.5 2.238 4.5 5v9z"></path>
</symbol>
</defs>
</svg>
